<svg preserveAspectRatio="xMidYMid meet" width="24" height="24" overflow="visible" style="display: block;" viewBox="0 0 22.5 22.5" fill="none" xmlns="http://www.w3.org/2000/svg">
<g id="Container">
<path id="Icon" d="M12.5 10V7.5H18.75V10H12.5V10M12.5 5V2.5H22.5V5H12.5V5M6.25 22.5C4.52083 22.5 3.04688 21.8906 1.82812 20.6719C0.609375 19.4531 0 17.9792 0 16.25C0 15.25 0.21875 14.3177 0.65625 13.4531C1.09375 12.5885 1.70833 11.8542 2.5 11.25V3.75C2.5 2.70833 2.86458 1.82292 3.59375 1.09375C4.32292 0.364583 5.20833 0 6.25 0C7.29167 0 8.17708 0.364583 8.90625 1.09375C9.63542 1.82292 10 2.70833 10 3.75V11.25C10.7917 11.8542 11.4062 12.5885 11.8438 13.4531C12.2812 14.3177 12.5 15.25 12.5 16.25C12.5 17.9792 11.8906 19.4531 10.6719 20.6719C9.45312 21.8906 7.97917 22.5 6.25 22.5V22.5M2.5 16.25H10C10 15.6458 9.86979 15.0833 9.60938 14.5625C9.34896 14.0417 8.97917 13.6042 8.5 13.25L7.5 12.5V3.75C7.5 3.39583 7.38021 3.09896 7.14062 2.85938C6.90104 2.61979 6.60417 2.5 6.25 2.5C5.89583 2.5 5.59896 2.61979 5.35938 2.85938C5.11979 3.09896 5 3.39583 5 3.75V12.5L4 13.25C3.52083 13.6042 3.15104 14.0417 2.89062 14.5625C2.63021 15.0833 2.5 15.6458 2.5 16.25V16.25" fill="var(--fill-0, #AC3509)"/>
</g>
</svg>
