<svg preserveAspectRatio="xMidYMid meet" width="20" height="18" overflow="visible" style="display: block;" viewBox="0 0 18 18" fill="none" xmlns="http://www.w3.org/2000/svg">
<g id="Container">
<path id="Icon" d="M9 10.325V10.325V10.325V10.325V10.325V10.325V10.325V10.325V10.325V10.325V10.325V10.325V10.325V10.325V10.325V10.325V10.325V10.325V10.325V10.325V10.325V10.325V10.325M3 18C2.16667 18 1.45833 17.7083 0.875 17.125C0.291667 16.5417 0 15.8333 0 15V9C0 8.6 0.075 8.21667 0.225 7.85C0.375 7.48333 0.591667 7.15833 0.875 6.875L6.875 0.875C7.15833 0.575 7.4875 0.354167 7.8625 0.2125C8.2375 0.0708333 8.61667 0 9 0C9.38333 0 9.75833 0.0708333 10.125 0.2125C10.4917 0.354167 10.825 0.575 11.125 0.875L17.125 6.875C17.4083 7.15833 17.625 7.48333 17.775 7.85C17.925 8.21667 18 8.6 18 9V15C18 15.8333 17.7083 16.5417 17.125 17.125C16.5417 17.7083 15.8333 18 15 18H3V18M3 16H15C15.2833 16 15.5208 15.9042 15.7125 15.7125C15.9042 15.5208 16 15.2833 16 15V9C16 8.86667 15.975 8.74167 15.925 8.625C15.875 8.50833 15.8 8.4 15.7 8.3L11.875 4.45L10.4 5.9L14 9.5V14H4V9.5L10.45 3.05L9.7 2.3C9.56667 2.16667 9.4375 2.08333 9.3125 2.05C9.1875 2.01667 9.08333 2 9 2C8.91667 2 8.8125 2.01667 8.6875 2.05C8.5625 2.08333 8.43333 2.16667 8.3 2.3L2.3 8.3C2.2 8.4 2.125 8.50833 2.075 8.625C2.025 8.74167 2 8.86667 2 9V15C2 15.2833 2.09583 15.5208 2.2875 15.7125C2.47917 15.9042 2.71667 16 3 16V16M6 12H12V10.325L9 7.325L6 10.325V12V12" fill="var(--fill-0, #A8A29E)"/>
</g>
</svg>
